<?xml version="1.0" encoding="UTF-8" standalone="no"?>
<!-- Created with Inkscape (http://www.inkscape.org/) -->

<svg
   version="1.1"
   id="svg1"
   width="146.88"
   height="172.8"
   viewBox="0 0 146.88 172.8"
   xmlns="http://www.w3.org/2000/svg"
   xmlns:svg="http://www.w3.org/2000/svg">
  <defs
     id="defs1" />
  <g
     id="g1"
     style="display:inline">
    <path
       style="display:inline;fill:#ffffff"
       d="m 72.042108,168.42911 c -0.88,-0.60981 -2.248,-1.46027 -3.04,-1.88992 -0.792,-0.42965 -2.311119,-1.39273 -3.37582,-2.14018 -1.064701,-0.74746 -4.124701,-2.77596 -6.800001,-4.5078 -2.675299,-1.73183 -4.86418,-3.22611 -4.86418,-3.3206 0,-0.0945 0.557693,-1.19755 1.239318,-2.45121 1.228472,-2.25945 3.492052,-6.55995 6.122267,-11.63151 0.846905,-1.63299 1.500456,-2.54908 1.721741,-2.41337 1.187636,0.72831 8.559993,5.7973 9.569602,6.57973 l 1.212927,0.94001 2.787073,-1.94327 c 6.582441,-4.58956 8.12164,-5.56327 8.369295,-5.29446 0.469075,0.50913 8.718713,16.18389 8.575794,16.29447 -0.04291,0.0332 -2.382016,1.59627 -5.198016,3.47349 -2.816,1.87722 -5.984,3.99048 -7.04,4.69614 -4.751221,3.17494 -7.270671,4.77701 -7.467259,4.7483 -0.117008,-0.0171 -0.932741,-0.53001 -1.812741,-1.13982 z M 41.782696,146.04718 C 32.579922,137.00758 27.128964,129.70868 20.298807,117.28 18.773433,114.50432 14.930512,106.06295 13.233345,101.76 11.190218,96.579917 8.1054961,85.340515 6.6454314,77.756478 5.8850897,73.807023 4.7760237,65.311611 4.5153347,61.440001 c -0.100731,-1.496 -0.2437224,-3.110534 -0.3177587,-3.587852 -0.1425129,-0.918794 0.00476,-0.976661 11.20453,-4.402478 1.111278,-0.339921 6.112441,-1.60967 6.34001,-1.60967 0.08436,0 0.249746,1.188 0.36753,2.64 1.780526,21.949828 6.038865,38.197722 13.966059,53.288159 2.274095,4.32903 6.926852,11.88694 7.326402,11.90095 0.088,0.003 0.498235,-0.6052 0.911634,-1.35175 1.378775,-2.4899 7.502767,-13.80484 8.788154,-16.23736 8.02345,-15.183893 11.212125,-21.278997 12.932353,-24.719999 l 2.039676,-4.08 h 5.829584 5.829584 l 2.144735,4.24 c 3.403767,6.729022 7.854091,15.233276 11.596455,22.160001 1.901782,3.519998 4.193544,7.770458 5.092806,9.445468 3.431972,6.39255 5.789762,10.55453 5.979222,10.55453 0.40238,0 4.28199,-6.53627 7.40752,-12.48 7.03416,-13.376636 12.39655,-34.04245 13.2678,-51.13201 0.11026,-2.162607 0.31251,-4.00126 0.44946,-4.085898 0.58011,-0.358533 16.24178,4.185834 17.01102,4.935896 0.132,0.12871 0.086,2.170817 -0.10221,4.538016 -1.62835,20.479582 -6.13936,37.591242 -14.08373,53.423996 -4.04485,8.0612 -6.81318,12.54096 -12.22305,19.77952 -2.91771,3.90398 -10.14448,11.72565 -13.26481,14.35676 l -1.53023,1.2903 -1.3604,-2.27329 c -3.309714,-5.53068 -10.315572,-17.99547 -10.315572,-18.35343 0,-0.0776 -0.266263,-0.52329 -0.591695,-0.99046 -0.325432,-0.46717 -1.241585,-2.0734 -2.035895,-3.5694 -0.794309,-1.496 -3.238319,-5.96 -5.431133,-9.92 -2.192814,-3.96 -4.768661,-8.67523 -5.724106,-10.4783 -0.955444,-1.80306 -1.810532,-3.27906 -1.900196,-3.28 -0.231938,-0.002 -0.394476,0.2776 -5.107049,8.7983 -5.829232,10.53971 -10.233081,18.46536 -10.579492,19.04 -0.159146,0.264 -1.535399,2.712 -3.058342,5.44 -1.522942,2.728 -3.021217,5.32 -3.3295,5.76 -0.308283,0.44 -0.934485,1.54234 -1.39156,2.44964 -0.457075,0.90731 -1.621234,2.98054 -2.58702,4.60718 l -1.755973,2.95754 z M 73.242108,64.394688 64.842107,64.309375 V 50.234688 36.160001 l -1.36,0.0028 c -2.827981,0.0058 -15.402243,0.992396 -22.48,1.763871 -10.221657,1.114159 -22.266906,3.412894 -33.6432142,6.420525 -1.6077671,0.425056 -3.0117672,0.77283 -3.1200001,0.77283 -0.108233,0 -0.1967872,-4.362334 -0.1967872,-9.694075 V 25.731877 L 7.6421056,24.863651 C 22.706758,21.230422 47.308335,18.010808 60.922107,17.890858 l 3.92,-0.03454 V 10.528159 3.2 l 8.800001,-0.048 c 4.84,-0.0264 8.98,-0.0624 9.2,-0.08 0.306877,-0.02455 0.420012,1.6584761 0.48596,7.229287 l 0.08596,7.261286 1.35404,0.166035 c 0.744722,0.09132 3.44204,0.25153 5.99404,0.356023 14.837242,0.607524 38.578782,3.906581 49.215982,6.838916 l 3.10402,0.855677 0.0847,9.670389 c 0.0466,5.318713 -0.0264,9.670388 -0.16211,9.670388 -0.13574,0 -0.74985,-0.147837 -1.36469,-0.328526 -5.09653,-1.497773 -21.23673,-4.898272 -27.99789,-5.898737 -7.01407,-1.037887 -29.748691,-3.010714 -30.143651,-2.615755 -0.07545,0.07545 -0.163989,6.451989 -0.196763,14.170096 l -0.05959,14.032922 h -0.8 c -0.44,0 -4.58,-0.03839 -9.2,-0.08531 z"
       id="path1" />
  </g>
</svg>
